<?xml version="1.0" encoding="UTF-8"?>
<svg width="586px" height="134px" viewBox="0 0 586 134" version="1.1" xmlns="http://www.w3.org/2000/svg" xmlns:xlink="http://www.w3.org/1999/xlink">
    <defs>
        <path d="M12,79.5698409 L12,17.2863474 L35.3890173,17.2863474 L35.3890173,78.1406074 C35.3890173,95.1423778 40.4124313,102.570789 54.4712867,102.570789 C68.2466039,102.570789 74.2747044,96.0003522 74.2747044,77.2848511 L74.2747044,17.2863474 L97.6637147,17.2863474 L97.6637147,78.7118665 C97.6637147,106.569505 82.0219211,120.999556 54.328404,120.999556 C27.3537872,120.999556 12,106.713983 12,79.5698409 Z M109.132514,44.7136724 L129.938385,44.7136724 L129.938385,56.5697681 C133.66911,49.1413683 141.847225,42.9999185 154.332074,42.9999185 C169.112071,42.9999185 179.587584,51.8575517 179.587584,71.8555898 L179.587584,119.426743 L158.779487,119.426743 L158.779487,74.8562936 C158.779487,64.7139053 154.760746,59.8549925 145.577951,59.8549925 C136.683149,59.8549925 129.938385,65.2851644 129.938385,76.2855038 L129.938385,119.426743 L109.132514,119.426743 L109.132514,44.7136724 Z M192.347274,119.427409 L213.010238,119.427409 L213.010238,44.7143262 L192.347274,44.7143262 L192.347274,119.427409 Z M190.768814,23.2848599 C190.768814,16.8566948 195.937345,12 202.536999,12 C209.279536,12 214.44584,16.8566948 214.44584,23.2848599 C214.44584,29.7152664 209.279536,34.5697198 202.536999,34.5697198 C195.937345,34.5697198 190.768814,29.7152664 190.768814,23.2848599 Z M219.89165,44.7136724 L242.133098,44.7136724 L260.070063,98.1417508 L277.864168,44.7136724 L297.95096,44.7136724 L270.688388,119.426743 L247.299472,119.426743 L219.89165,44.7136724 Z M297.513287,82.9999872 L297.513287,81.8552743 C297.513287,58.2852965 314.300298,42.9994748 336.113169,42.9994748 C355.48332,42.9994748 372.703785,54.2865761 372.703785,80.9972766 L372.703785,86.7141871 L318.604828,86.7141871 C319.180813,99.1437599 325.923374,106.283215 337.260684,106.283215 C346.87215,106.283215 351.607555,102.142243 352.90018,95.8563175 L372.558676,95.8563175 C370.118301,112.000111 357.20471,121 336.687043,121 C314.012423,121 297.513287,106.85446 297.513287,82.9999872 Z M382.021047,44.7136724 L402.827057,44.7136724 L402.827057,58.9992362 C407.562463,48.9991081 414.881008,43.7134378 427.077724,43.5711776 L427.077724,62.8556963 C411.723993,62.713436 402.827057,67.7146091 402.827057,81.9979548 L402.827057,119.426743 L382.021047,119.426743 L382.021047,44.7136724 Z M430.94505,95.999465 L450.317545,95.999465 C451.179295,102.714378 454.476732,106.570838 463.519011,106.570838 C471.552087,106.570838 475.282742,103.570134 475.282742,98.428933 C475.282742,93.2832816 470.835212,91.1405521 460.074121,89.5690818 C440.12775,86.570596 432.38044,80.8581449 432.38044,66.2858426 C432.38044,50.7132823 446.729656,42.998144 462.081277,42.998144 C478.727632,42.998144 491.210348,48.9973336 493.076848,66.1413643 L473.992227,66.1413643 C472.844712,59.9999144 469.401932,57.1436889 462.226386,57.1436889 C455.481481,57.1436889 451.607826,60.286653 451.607826,64.8566092 C451.607826,69.5688256 455.193606,71.4270345 466.099807,72.9985283 C484.898662,75.7124935 495.229113,80.426928 495.229113,96.4262457 C495.229113,112.570023 483.463038,120.998667 463.659667,120.998667 C443.429875,120.998667 431.66169,112.143256 430.94505,95.999465 Z M498.809501,81.8552743 C498.809501,58.2852965 515.596513,42.9994748 537.409383,42.9994748 C556.779769,42.9994748 574,54.2865761 574,80.9972766 L574,86.7141871 L519.901043,86.7141871 C520.477028,99.1437599 527.219588,106.283215 538.556899,106.283215 C548.170709,106.283215 552.90377,102.142243 554.196629,95.8563175 L573.85489,95.8563175 C571.414516,112.000111 558.500925,121 537.983258,121 C515.308638,121 498.809501,106.85446 498.809501,82.9999872 L498.809501,81.8552743 Z M553.76552,74.0000937 C553.048879,62.7129924 547.308959,57.2850619 537.409383,57.2850619 C528.081573,57.2850619 521.767543,63.4287299 520.189153,74.0000937 L553.76552,74.0000937 Z M352.469305,74.0000937 C351.752665,62.7129924 346.01251,57.2850619 336.113169,57.2850619 C326.785124,57.2850619 320.471328,63.4287299 318.892938,74.0000937 L352.469305,74.0000937 Z" id="path-1"></path>
    </defs>
    <g id="Page-1" stroke="none" stroke-width="1" fill="none" fill-rule="evenodd">
        <g id="logo">
            <mask id="mask-2" fill="white">
                <use xlink:href="#path-1"></use>
            </mask>
            <g id="Clip-2"></g>
            <polygon id="Fill-1" fill="#777" mask="url(#mask-2)" points="0 0 586 0 586 133 0 133"></polygon>
        </g>
    </g>
</svg>
